<svg style="opacity:.25" width="1920" height="760" viewBox="0 0 1920 760" fill="none" xmlns="http://www.w3.org/2000/svg">
<mask id="mask0" mask-type="alpha" maskUnits="userSpaceOnUse" x="0" y="0" width="1920" height="760">
<rect width="1920" height="760" fill="#003157"/>
</mask>
<g mask="url(#mask0)">
<g opacity="0.3">
<path d="M1774.25 -381.739C1775.03 -382.52 1776.3 -382.52 1777.08 -381.739L1806.79 -352.031L675.258 779.5L613.013 779.5L1774.25 -381.739Z" fill="url(#paint0_linear)" style="mix-blend-mode:soft-light"/>
</g>
<g opacity="0.3">
<path d="M2049.25 -381.739C2050.03 -382.52 2051.3 -382.52 2052.08 -381.739L2081.79 -352.03L921.123 808.636L890 777.513L2049.25 -381.739Z" fill="url(#paint1_linear)" style="mix-blend-mode:soft-light"/>
</g>
<path d="M1685.88 -233.494C1686.66 -234.275 1687.93 -234.275 1688.71 -233.494L1811.74 -110.458L941.786 759.5L692.885 759.5L1685.88 -233.494Z" fill="url(#paint2_linear)" style="mix-blend-mode:soft-light"/>
<g opacity="0.5">
<path d="M1846.36 -147.257C1847.14 -148.038 1848.41 -148.038 1849.19 -147.257L1972.23 -24.2205L1200.9 747.104L952 747.104L1846.36 -147.257Z" fill="url(#paint3_linear)" style="mix-blend-mode:soft-light"/>
</g>
<g opacity="0.5">
<path d="M1901.19 46.7558C1902.45 45.4958 1904.6 46.3882 1904.6 48.17L1904.6 620.006L1778.27 746.342L1201.6 746.342L1901.19 46.7558Z" fill="url(#paint4_linear)" fill-opacity="0.4" style="mix-blend-mode:multiply"/>
</g>
<g opacity="0.5">
<path d="M832.879 -78.5726C833.254 -78.9477 833.763 -79.1584 834.293 -79.1584L1471.15 -79.1585L646.648 745.341L8.96513 745.341L832.879 -78.5726Z" fill="url(#paint5_linear)" fill-opacity="0.2" style="mix-blend-mode:multiply"/>
</g>
<path d="M1920 454L1606 768H1920V454Z" fill="white" fill-opacity="0.5" style="mix-blend-mode:soft-light"/>
<path d="M0 474L474 0H0V474Z" fill="white" fill-opacity="0.3" style="mix-blend-mode:soft-light"/>
</g>
<defs>
<linearGradient id="paint0_linear" x1="1791.23" y1="-367.592" x2="628.574" y2="795.061" gradientUnits="userSpaceOnUse">
<stop stop-color="white" stop-opacity="0"/>
<stop offset="0.65625" stop-color="white"/>
<stop offset="1" stop-color="white" stop-opacity="0"/>
</linearGradient>
<linearGradient id="paint1_linear" x1="2066.23" y1="-367.592" x2="905.561" y2="793.074" gradientUnits="userSpaceOnUse">
<stop stop-color="white" stop-opacity="0"/>
<stop offset="0.65625" stop-color="white"/>
<stop offset="1" stop-color="white" stop-opacity="0"/>
</linearGradient>
<linearGradient id="paint2_linear" x1="1749.52" y1="-172.683" x2="755.11" y2="821.725" gradientUnits="userSpaceOnUse">
<stop stop-color="white" stop-opacity="0"/>
<stop offset="0.65625" stop-color="white"/>
<stop offset="1" stop-color="white" stop-opacity="0"/>
</linearGradient>
<linearGradient id="paint3_linear" x1="1910" y1="-86.4459" x2="1014.23" y2="809.329" gradientUnits="userSpaceOnUse">
<stop stop-color="white" stop-opacity="0"/>
<stop offset="0.65625" stop-color="white"/>
<stop offset="1" stop-color="white" stop-opacity="0"/>
</linearGradient>
<linearGradient id="paint4_linear" x1="1800.2" y1="805.54" x2="1481.24" y2="459.585" gradientUnits="userSpaceOnUse">
<stop stop-color="#003157" stop-opacity="0"/>
<stop offset="1" stop-color="#003157"/>
</linearGradient>
<linearGradient id="paint5_linear" x1="791.708" y1="689.994" x2="432.721" y2="312.942" gradientUnits="userSpaceOnUse">
<stop stop-color="#003157"/>
<stop offset="1" stop-color="#003157" stop-opacity="0"/>
</linearGradient>
</defs>
</svg>
