<svg xmlns="http://www.w3.org/2000/svg" xmlns:xlink="http://www.w3.org/1999/xlink" viewBox="0 0 52 52"><defs><style>.cls-1,.cls-2{fill:url(#Безымянный_градиент_2);}.cls-2{stroke-width:2px;stroke:url(#Безымянный_градиент_6);}.cls-3{fill-rule:evenodd;fill:url(#Безымянный_градиент_4);}.cls-4{fill:none;stroke-width:3px;stroke:url(#Безымянный_градиент_5);}.cls-5{fill:url(#Безымянный_градиент_6);}</style><linearGradient id="Безымянный_градиент_2" x1="26" y1="92" x2="26" y2="44" gradientTransform="matrix(1, 0, 0, -1, 0, 94)" gradientUnits="userSpaceOnUse"><stop offset="0" stop-color="#fff" stop-opacity="0.8"/><stop offset="1" stop-color="#fff" stop-opacity="0.3"/></linearGradient><linearGradient id="Безымянный_градиент_6" x1="26" y1="92" x2="26" y2="44" gradientTransform="matrix(1, 0, 0, -1, 0, 94)" gradientUnits="userSpaceOnUse"><stop offset="0" stop-color="#fff" stop-opacity="0.2"/><stop offset="1" stop-color="#fff" stop-opacity="0.3"/></linearGradient><linearGradient id="Безымянный_градиент_4" x1="16.38" y1="62.86" x2="43.19" y2="73.39" gradientTransform="matrix(1, 0, 0, -1, 0, 94)" gradientUnits="userSpaceOnUse"><stop offset="0" stop-color="#1eb362"/><stop offset="1" stop-color="#6bd52a"/></linearGradient><linearGradient id="Безымянный_градиент_5" x1="26.55" y1="76.75" x2="26.55" y2="58.86" gradientTransform="matrix(1, 0, 0, -1, 0, 94)" gradientUnits="userSpaceOnUse"><stop offset="0" stop-color="#fff" stop-opacity="0.7"/><stop offset="1" stop-color="#fff"/></linearGradient></defs><title>list_item5</title><g id="Слой_2" data-name="Слой 2"><g id="Слой_1-2" data-name="Слой 1"><path class="cls-1" d="M2,14A12,12,0,0,1,14,2H38A12,12,0,0,1,50,14V38A12,12,0,0,1,38,50H14A12,12,0,0,1,2,38Z"/><rect class="cls-2" x="3" y="3" width="46" height="46" rx="11"/><path class="cls-3" d="M35.82,17.35a2.76,2.76,0,0,1,.62,3.74L26.72,34a2.58,2.58,0,0,1-1.88,1.12,2.5,2.5,0,0,1-2-.76l-5.84-6a2.76,2.76,0,0,1,0-3.8,2.52,2.52,0,0,1,3.65,0l3.68,3.82,8-10.34A2.52,2.52,0,0,1,35.82,17.35Z"/><path class="cls-4" d="M37.64,22l0,0,0,0a4.26,4.26,0,0,0-1-5.79l-.88,1.21.88-1.21a4,4,0,0,0-5.7,1L24.12,26l-2.47-2.57h0a4,4,0,0,0-5.81.05,4.27,4.27,0,0,0,.05,5.88l5.84,6h0A4,4,0,0,0,25,36.63a4.1,4.1,0,0,0,3-1.75Z"/><path class="cls-5" d="M14,4H38V0H14ZM48,14V38h4V14ZM38,48H14v4H38ZM4,38V14H0V38ZM14,48A10,10,0,0,1,4,38H0A14,14,0,0,0,14,52ZM48,38A10,10,0,0,1,38,48v4A14,14,0,0,0,52,38ZM38,4A10,10,0,0,1,48,14h4A14,14,0,0,0,38,0ZM14,0A14,14,0,0,0,0,14H4A10,10,0,0,1,14,4Z"/></g></g></svg>