<svg width="56" height="56" viewBox="0 0 56 56" fill="none" xmlns="http://www.w3.org/2000/svg">
<path d="M4.66668 55.0667H9.33335H14V40.1334V32.6667C14 34.7284 15.6716 36.4 17.7333 36.4H23.3333V32.6667H17.7333V29.8667C17.7333 27.805 16.0617 26.1334 14 26.1334H9.33335H4.66668C2.60495 26.1334 0.93335 27.805 0.93335 29.8667V30.8V40.1334H4.66668V55.0667Z" fill="url(#paint0_linear)"/>
<path d="M4.66668 26.1334H9.33335C6.75642 26.1334 4.66668 24.0436 4.66668 21.4667C4.66668 18.8898 6.75642 16.8 9.33335 16.8C11.9103 16.8 14 18.8898 14 21.4667C14 24.0436 11.9103 26.1334 9.33335 26.1334H14C16.0617 26.1334 17.7333 27.805 17.7333 29.8667V32.6667H23.3333V36.4H17.7333C15.6716 36.4 14 34.7284 14 32.6667V40.1334H42V29.8667H36.4C34.3383 29.8667 32.6667 28.1951 32.6667 26.1334V19.6H36.4V26.1334H46.6667C44.0897 26.1334 42 24.0436 42 21.4667C42 18.8898 44.0897 16.8 46.6667 16.8C49.2436 16.8 51.3333 18.8898 51.3333 21.4667C51.3333 24.0436 49.2436 26.1334 46.6667 26.1334H51.3333C53.3951 26.1334 55.0667 27.805 55.0667 29.8667V4.66669H0.93335V29.8667C0.93335 27.805 2.60495 26.1334 4.66668 26.1334ZM46.6667 8.40002C47.698 8.40002 48.5333 9.23535 48.5333 10.2667C48.5333 11.298 47.698 12.1334 46.6667 12.1334C45.8808 12.1334 45.2116 11.6462 44.9363 10.9592C44.8504 10.7446 44.8 10.5122 44.8 10.2667C44.8 9.23535 45.6353 8.40002 46.6667 8.40002ZM37.3333 12.1334C38.1192 12.1334 38.7884 12.6206 39.0637 13.3075C39.1496 13.5222 39.2 13.7546 39.2 14C39.2 15.0314 38.3647 15.8667 37.3333 15.8667C36.302 15.8667 35.4667 15.0314 35.4667 14C35.4667 12.9687 36.302 12.1334 37.3333 12.1334ZM28 9.33335C29.0313 9.33335 29.8667 10.1687 29.8667 11.2C29.8667 12.2314 29.0313 13.0667 28 13.0667C27.3672 13.0667 26.8109 12.7503 26.4731 12.2687C26.2603 11.9654 26.1333 11.5986 26.1333 11.2C26.1333 10.1687 26.9687 9.33335 28 9.33335ZM18.6667 15.8667C19.2995 15.8667 19.8557 16.1831 20.1936 16.6647C20.4064 16.968 20.5333 17.3348 20.5333 17.7334C20.5333 18.7647 19.698 19.6 18.6667 19.6C17.6353 19.6 16.8 18.7647 16.8 17.7334C16.8 16.702 17.6353 15.8667 18.6667 15.8667ZM9.33335 8.40002C10.3647 8.40002 11.2 9.23535 11.2 10.2667C11.2 11.298 10.3647 12.1334 9.33335 12.1334C8.30202 12.1334 7.46668 11.298 7.46668 10.2667C7.46668 9.23535 8.30202 8.40002 9.33335 8.40002Z" fill="url(#paint1_linear)"/>
<path d="M51.3334 26.1333H46.6667H36.4001V19.6H32.6667V26.1333C32.6667 28.195 34.3383 29.8666 36.4001 29.8666H42.0001V40.1333V55.0666H46.6667H51.3334V40.1333H55.0668V30.8V29.8666C55.0668 27.8049 53.3952 26.1333 51.3334 26.1333Z" fill="url(#paint2_linear)"/>
<path d="M9.33341 26.1333C11.9107 26.1333 14.0001 24.044 14.0001 21.4667C14.0001 18.8893 11.9107 16.8 9.33341 16.8C6.75609 16.8 4.66675 18.8893 4.66675 21.4667C4.66675 24.044 6.75609 26.1333 9.33341 26.1333Z" fill="url(#paint3_linear)"/>
<path d="M46.6667 26.1333C49.244 26.1333 51.3333 24.044 51.3333 21.4667C51.3333 18.8893 49.244 16.8 46.6667 16.8C44.0893 16.8 42 18.8893 42 21.4667C42 24.044 44.0893 26.1333 46.6667 26.1333Z" fill="url(#paint4_linear)"/>
<path d="M55.0667 0.93335H0.93335V4.66668H55.0667V0.93335Z" fill="url(#paint5_linear)"/>
<path d="M9.33322 12.1334C10.3642 12.1334 11.1999 11.2976 11.1999 10.2667C11.1999 9.23576 10.3642 8.40002 9.33322 8.40002C8.30229 8.40002 7.46655 9.23576 7.46655 10.2667C7.46655 11.2976 8.30229 12.1334 9.33322 12.1334Z" fill="url(#paint6_linear)"/>
<path d="M18.6665 19.6C19.6978 19.6 20.5331 18.7646 20.5331 17.7333C20.5331 17.3348 20.4062 16.968 20.1934 16.6646C19.8555 16.183 19.2993 15.8666 18.6665 15.8666C17.6351 15.8666 16.7998 16.702 16.7998 17.7333C16.7998 18.7646 17.6351 19.6 18.6665 19.6Z" fill="url(#paint7_linear)"/>
<path d="M28 13.0666C29.0313 13.0666 29.8666 12.2313 29.8666 11.2C29.8666 10.1686 29.0313 9.33331 28 9.33331C26.9686 9.33331 26.1333 10.1686 26.1333 11.2C26.1333 11.5985 26.2602 11.9653 26.473 12.2686C26.8109 12.7502 27.3672 13.0666 28 13.0666Z" fill="url(#paint8_linear)"/>
<path d="M37.3332 15.8667C38.3645 15.8667 39.1999 15.0314 39.1999 14C39.1999 13.7546 39.1495 13.5222 39.0636 13.3075C38.7883 12.6206 38.1191 12.1334 37.3332 12.1334C36.3019 12.1334 35.4666 12.9687 35.4666 14C35.4666 15.0314 36.3019 15.8667 37.3332 15.8667Z" fill="url(#paint9_linear)"/>
<path d="M46.6667 12.1334C47.698 12.1334 48.5334 11.298 48.5334 10.2667C48.5334 9.23536 47.698 8.40002 46.6667 8.40002C45.6354 8.40002 44.8 9.23536 44.8 10.2667C44.8 10.5122 44.8504 10.7446 44.9363 10.9592C45.2116 11.6462 45.8808 12.1334 46.6667 12.1334Z" fill="url(#paint10_linear)"/>
<path fill-rule="evenodd" clip-rule="evenodd" d="M3.73333 41.0667H0.933333C0.418133 41.0667 0 40.6485 0 40.1333V30.8V29.8667V4.66667V0.933333C0 0.418133 0.418133 0 0.933333 0H55.0667C55.5819 0 56 0.418133 56 0.933333V4.66667V29.8667V30.8V40.1333C56 40.6485 55.5819 41.0667 55.0667 41.0667H52.2667V55.0667C52.2667 55.5819 51.8485 56 51.3333 56H46.6667H42C41.4848 56 41.0667 55.5819 41.0667 55.0667V41.0667H14.9333V55.0667C14.9333 55.5819 14.5152 56 14 56H9.33333H4.66667C4.15147 56 3.73333 55.5819 3.73333 55.0667V41.0667ZM14.9333 36.3757V39.2H41.0667V30.8H36.4C33.8268 30.8 31.7333 28.7065 31.7333 26.1333V19.6C31.7333 19.0848 32.1515 18.6667 32.6667 18.6667H36.4C36.9152 18.6667 37.3333 19.0848 37.3333 19.6V25.2H42.504C41.6136 24.2079 41.0667 22.9021 41.0667 21.4667C41.0667 18.3783 43.5783 15.8667 46.6667 15.8667C49.7551 15.8667 52.2667 18.3783 52.2667 21.4667C52.2667 22.9021 51.7197 24.2079 50.8293 25.2H51.3333C52.388 25.2 53.3512 25.5649 54.1333 26.1576V5.6H1.86667V26.1576C2.6488 25.5649 3.612 25.2 4.66667 25.2H5.17067C4.28027 24.2079 3.73333 22.9021 3.73333 21.4667C3.73333 18.3783 6.24493 15.8667 9.33333 15.8667C12.4217 15.8667 14.9333 18.3783 14.9333 21.4667C14.9333 22.9021 14.3864 24.2079 13.496 25.2H14C16.5732 25.2 18.6667 27.2935 18.6667 29.8667V31.7333H23.3333C23.8485 31.7333 24.2667 32.1515 24.2667 32.6667V36.4C24.2667 36.9152 23.8485 37.3333 23.3333 37.3333H17.7333C16.6787 37.3333 15.7155 36.9684 14.9333 36.3757ZM9.33333 17.7333C7.2744 17.7333 5.6 19.4077 5.6 21.4667C5.6 23.5256 7.2744 25.2 9.33333 25.2C11.3923 25.2 13.0667 23.5256 13.0667 21.4667C13.0667 19.4077 11.3923 17.7333 9.33333 17.7333ZM46.6667 17.7333C44.6077 17.7333 42.9333 19.4077 42.9333 21.4667C42.9333 23.5256 44.6077 25.2 46.6667 25.2C48.7256 25.2 50.4 23.5256 50.4 21.4667C50.4 19.4077 48.7256 17.7333 46.6667 17.7333ZM52.2667 39.2H54.1333V30.8V29.8667C54.1333 28.3229 52.8771 27.0667 51.3333 27.0667H36.4C35.8848 27.0667 35.4667 26.6485 35.4667 26.1333V20.5333H33.6V26.1333C33.6 27.6771 34.8563 28.9333 36.4 28.9333H42C42.5152 28.9333 42.9333 29.3515 42.9333 29.8667V54.1333H45.7333V40.1333H47.6V54.1333H50.4V29.8667H52.2667V39.2ZM54.1333 1.86667H1.86667V3.73333H54.1333V1.86667ZM4.66667 27.0667C3.12293 27.0667 1.86667 28.3229 1.86667 29.8667V30.8V39.2H3.73333V29.8667H5.6V54.1333H8.4V40.1333H10.2667V54.1333H13.0667V32.6667V30.8V29.8667H14.9333V30.8V32.6667C14.9333 34.2104 16.1896 35.4667 17.7333 35.4667H22.4V33.6H17.7333C17.2181 33.6 16.8 33.1819 16.8 32.6667V29.8667C16.8 28.3229 15.5437 27.0667 14 27.0667H4.66667ZM26.3779 13.4745L21.3537 16.9913C21.42 17.2293 21.4667 17.4748 21.4667 17.7333C21.4667 19.2771 20.2104 20.5333 18.6667 20.5333C17.1229 20.5333 15.8667 19.2771 15.8667 17.7333C15.8667 17.4123 15.932 17.108 16.0319 16.8205L10.8043 12.6383C10.3759 12.9052 9.87467 13.0667 9.33333 13.0667C7.7896 13.0667 6.53333 11.8104 6.53333 10.2667C6.53333 8.72293 7.7896 7.46667 9.33333 7.46667C10.8771 7.46667 12.1333 8.72293 12.1333 10.2667C12.1333 10.5877 12.068 10.892 11.9681 11.1795L17.1957 15.3617C17.6241 15.0948 18.1253 14.9333 18.6667 14.9333C19.2724 14.9333 19.8296 15.1312 20.2888 15.4588L25.3129 11.942C25.2467 11.704 25.2 11.4585 25.2 11.2C25.2 9.65627 26.4563 8.4 28 8.4C29.4961 8.4 30.7123 9.58253 30.786 11.0609L35.0831 12.3499C35.5927 11.6564 36.4084 11.2 37.3333 11.2C38.1687 11.2 38.9116 11.5752 39.4249 12.1576L43.8779 10.3768C43.877 10.3601 43.8747 10.3439 43.8724 10.3276C43.8695 10.3074 43.8667 10.2873 43.8667 10.2667C43.8667 8.72293 45.1229 7.46667 46.6667 7.46667C48.2104 7.46667 49.4667 8.72293 49.4667 10.2667C49.4667 11.8104 48.2104 13.0667 46.6667 13.0667C45.8313 13.0667 45.0884 12.6915 44.5751 12.1091L40.1221 13.8899C40.123 13.9065 40.1253 13.9228 40.1276 13.9391C40.1305 13.9592 40.1333 13.9793 40.1333 14C40.1333 15.5437 38.8771 16.8 37.3333 16.8C35.8372 16.8 34.6211 15.6175 34.5473 14.1391L30.2503 12.8501C29.7407 13.5436 28.9249 14 28 14C27.3943 14 26.8371 13.8021 26.3779 13.4745ZM47.6 10.2667C47.6 9.7524 47.1809 9.33333 46.6667 9.33333C46.1524 9.33333 45.7333 9.7524 45.7333 10.2667C45.7333 10.7809 46.1524 11.2 46.6667 11.2C47.1809 11.2 47.6 10.7809 47.6 10.2667ZM38.2667 14C38.2667 13.4857 37.8476 13.0667 37.3333 13.0667C36.8191 13.0667 36.4 13.4857 36.4 14C36.4 14.5143 36.8191 14.9333 37.3333 14.9333C37.8476 14.9333 38.2667 14.5143 38.2667 14ZM28.9333 11.2C28.9333 10.6857 28.5143 10.2667 28 10.2667C27.4857 10.2667 27.0667 10.6857 27.0667 11.2C27.0667 11.7143 27.4857 12.1333 28 12.1333C28.5143 12.1333 28.9333 11.7143 28.9333 11.2ZM8.4 10.2667C8.4 10.7809 8.81907 11.2 9.33333 11.2C9.8476 11.2 10.2667 10.7809 10.2667 10.2667C10.2667 9.7524 9.8476 9.33333 9.33333 9.33333C8.81907 9.33333 8.4 9.7524 8.4 10.2667ZM17.7333 17.7333C17.7333 18.2476 18.1524 18.6667 18.6667 18.6667C19.1809 18.6667 19.6 18.2476 19.6 17.7333C19.6 17.2191 19.1809 16.8 18.6667 16.8C18.1524 16.8 17.7333 17.2191 17.7333 17.7333ZM29.8667 20.5333H23.3333V22.4H29.8667V20.5333ZM21.4667 24.2667H29.8667V26.1333H21.4667V24.2667ZM29.8667 28H21.4667V29.8667H29.8667V28ZM37.3333 35.4667H39.2V37.3333H37.3333V35.4667ZM35.4667 35.4667H33.6V37.3333H35.4667V35.4667ZM29.8667 35.4667H31.7333V37.3333H29.8667V35.4667Z" fill="#182F44"/>
<defs>
<linearGradient id="paint0_linear" x1="12.1333" y1="26.1334" x2="12.1333" y2="55.0667" gradientUnits="userSpaceOnUse">
<stop stop-color="white" stop-opacity="0.85"/>
<stop offset="1" stop-color="white"/>
</linearGradient>
<linearGradient id="paint1_linear" x1="2.62502" y1="40.2738" x2="56.2679" y2="38.3529" gradientUnits="userSpaceOnUse">
<stop stop-color="#83C6CA"/>
<stop offset="1" stop-color="#89DCE1"/>
</linearGradient>
<linearGradient id="paint2_linear" x1="33.3667" y1="55.2071" x2="55.5874" y2="54.8779" gradientUnits="userSpaceOnUse">
<stop stop-color="#FF8225"/>
<stop offset="1" stop-color="#FF6B22"/>
</linearGradient>
<linearGradient id="paint3_linear" x1="9.33341" y1="16.8" x2="9.33341" y2="26.1333" gradientUnits="userSpaceOnUse">
<stop stop-color="white" stop-opacity="0.85"/>
<stop offset="1" stop-color="white"/>
</linearGradient>
<linearGradient id="paint4_linear" x1="42.2917" y1="26.1703" x2="51.5472" y2="25.9531" gradientUnits="userSpaceOnUse">
<stop stop-color="#FF8225"/>
<stop offset="1" stop-color="#FF6B22"/>
</linearGradient>
<linearGradient id="paint5_linear" x1="2.62502" y1="4.68147" x2="50.7654" y2="-11.6956" gradientUnits="userSpaceOnUse">
<stop stop-color="#FF8225"/>
<stop offset="1" stop-color="#FF6B22"/>
</linearGradient>
<linearGradient id="paint6_linear" x1="7.58322" y1="12.1481" x2="11.2854" y2="12.0613" gradientUnits="userSpaceOnUse">
<stop stop-color="#FF8225"/>
<stop offset="1" stop-color="#FF6B22"/>
</linearGradient>
<linearGradient id="paint7_linear" x1="16.9165" y1="19.6148" x2="20.6187" y2="19.5279" gradientUnits="userSpaceOnUse">
<stop stop-color="#FF8225"/>
<stop offset="1" stop-color="#FF6B22"/>
</linearGradient>
<linearGradient id="paint8_linear" x1="26.25" y1="13.0814" x2="29.9522" y2="12.9946" gradientUnits="userSpaceOnUse">
<stop stop-color="#FF8225"/>
<stop offset="1" stop-color="#FF6B22"/>
</linearGradient>
<linearGradient id="paint9_linear" x1="35.5832" y1="15.8815" x2="39.2854" y2="15.7946" gradientUnits="userSpaceOnUse">
<stop stop-color="#FF8225"/>
<stop offset="1" stop-color="#FF6B22"/>
</linearGradient>
<linearGradient id="paint10_linear" x1="44.9167" y1="12.1481" x2="48.6189" y2="12.0613" gradientUnits="userSpaceOnUse">
<stop stop-color="#FF8225"/>
<stop offset="1" stop-color="#FF6B22"/>
</linearGradient>
</defs>
</svg>
