<svg width="56" height="53" viewBox="0 0 56 53" fill="none" xmlns="http://www.w3.org/2000/svg">
<path d="M27.1251 2.25006H7V17.9976H17.5001C17.9833 17.9976 18.3751 18.3892 18.3751 18.8724C18.3751 21.7715 16.0245 24.1217 13.125 24.1217H10.4476C10.1712 26.292 8.89571 28.2081 7.00016 29.3009V38.9943H27.1251V2.25006ZM8.75001 4.87467C8.75001 4.39148 9.14174 3.9998 9.62501 3.9998H18.3751C18.8583 3.9998 19.2501 4.39148 19.2501 4.87467V11.8735C19.2501 12.3567 18.8583 12.7483 18.3751 12.7483H9.62501C9.14174 12.7483 8.75001 12.3567 8.75001 11.8735V4.87467ZM25.3751 37.2446H8.75001V35.4948H25.3749L25.3751 37.2446ZM25.3751 33.7451H8.75001V31.9953H25.3749L25.3751 33.7451ZM25.3751 30.2456H10.5002V28.4959H25.3751V30.2456ZM25.3751 26.7463H15.75V24.9965H25.3751V26.7463ZM25.3751 23.2468H19.2501V21.497H25.3751V23.2468ZM25.3751 19.7473H20.1251V17.9976H25.3751V19.7473ZM25.3751 16.2478H8.75001V14.4981H25.3749L25.3751 16.2478ZM25.3751 12.7483H21.0001V10.9986H25.3751V12.7483ZM25.3751 9.24887H21.0001V7.49928H25.3751V9.24887ZM25.3751 5.74954H21.0001V3.9998H25.3751V5.74954Z" fill="url(#paint0_linear)"/>
<path d="M17.5 5.74872H10.5V10.9987H17.5V5.74872Z" fill="url(#paint1_linear)"/>
<path d="M7 40.7432V42.4932H49.0001V40.7432H28.0001H7Z" fill="url(#paint2_linear)"/>
<path d="M39.375 30.2448H32.375V35.4948H39.375V30.2448Z" fill="url(#paint3_linear)"/>
<path d="M28.875 38.9943H48.9999V29.3009C47.1044 28.2081 45.8289 26.292 45.5525 24.1217H42.8751C39.9756 24.1217 37.625 21.7715 37.625 18.8724C37.625 18.3892 38.0168 17.9976 38.5 17.9976H49.0001V2.25006H28.875V38.9943ZM42.8749 28.496H46.3749V30.2458H42.8749V28.496ZM42.8749 31.9953H47.2499V33.7451H42.8749V31.9953ZM42.8749 35.4948H47.2499V37.2446H42.8749V35.4948ZM47.2498 12.7483H42.8748V10.9986H47.2498V12.7483ZM47.2498 9.24887H40.2497V7.49928H47.2498V9.24887ZM41.1249 10.9986V12.7483H36.7499V10.9986H41.1249ZM36.7499 3.9998H47.2499V5.74954H36.7499V3.9998ZM30.6249 3.9998H34.9999V5.74954H30.6249V3.9998ZM30.6249 7.49928H38.4999V9.24902H30.6249V7.49928ZM30.6249 10.9986H34.9999V12.7483H30.6249V10.9986ZM30.6249 14.4981H47.2498V16.2478H30.6249V14.4981ZM30.6249 17.9976H35.8749V19.7473H30.6249V17.9976ZM30.6249 21.497H36.7499V23.2468H30.6249V21.497ZM30.6249 24.9965H40.2499V26.7463H30.6249V24.9965ZM30.6249 29.3709C30.6249 28.8877 31.0166 28.496 31.4999 28.496H40.2499C40.7332 28.496 41.1249 28.8877 41.1249 29.3709V36.3698C41.1249 36.853 40.7332 37.2447 40.2499 37.2447H31.4999C31.0166 37.2447 30.6249 36.853 30.6249 36.3698V29.3709Z" fill="url(#paint4_linear)"/>
<path fill-rule="evenodd" clip-rule="evenodd" d="M50.7498 14.1391L55.7461 19.1259C55.9099 19.291 56.0013 19.5145 56 19.747V52.9919H54.25V20.1057L50.75 16.6063V18.8722C50.75 19.3554 50.3582 19.747 49.875 19.747H39.4887C39.8874 21.2911 41.2799 22.3704 42.8749 22.3717H46.3749C46.8582 22.3717 47.25 22.7633 47.25 23.2465C47.25 26.1455 49.6005 28.4957 52.5 28.4957V30.2455C51.9093 30.2437 51.3213 30.1673 50.75 30.018V43.3684C50.75 43.8516 50.3582 44.2432 49.875 44.2432H43.7499V52.9919H41.9999V44.2432H13.9999V52.9919H12.2499V44.2432H6.12489C5.64162 44.2432 5.24989 43.8516 5.24989 43.3684V30.018C4.67854 30.1673 4.09054 30.2437 3.49988 30.2455V28.4957C6.39934 28.4957 8.74991 26.1455 8.74991 23.2465C8.74991 22.7633 9.14164 22.3717 9.62491 22.3717H13.1251C14.72 22.3704 16.1125 21.2911 16.5113 19.747H6.12505C5.64178 19.747 5.25004 19.3554 5.25004 18.8722V16.6063L1.75003 20.1057V53.0006H1.61481e-05V19.7558C-0.00139692 19.5232 0.0899817 19.2998 0.253741 19.1346L5.25004 14.1391V1.37493C5.25004 0.891735 5.64178 0.500061 6.12505 0.500061H49.8748C50.3581 0.500061 50.7498 0.891735 50.7498 1.37493V14.1391ZM13.1249 24.1214H10.4475C10.1711 26.2917 8.89561 28.2078 6.9999 29.3006V38.994H27.125V2.2498H6.9999V17.9973H17.5C17.9832 17.9973 18.375 18.389 18.375 18.8722C18.375 21.7712 16.0244 24.1214 13.1249 24.1214ZM6.9999 42.4935H48.9998V40.7438H6.9999V42.4935ZM45.5524 24.1214H42.8749C39.9755 24.1214 37.6249 21.7712 37.6249 18.8722C37.6249 18.389 38.0166 17.9973 38.4999 17.9973H49V2.2498H28.875V38.994H48.9998V29.3006C47.1043 28.2078 45.8287 26.2917 45.5524 24.1214ZM9.62495 12.7475H18.375C18.8583 12.7475 19.25 12.3558 19.25 11.8727V4.87385C19.25 4.39066 18.8583 3.99898 18.375 3.99898H9.62495C9.14168 3.99898 8.74994 4.39066 8.74994 4.87385V11.8727C8.74994 12.3558 9.14183 12.7475 9.62495 12.7475ZM10.5 5.74872H17.5V10.9979H10.5V5.74872ZM31.4998 28.4952C31.0165 28.4952 30.6248 28.8868 30.6248 29.37V36.369C30.6248 36.8522 31.0165 37.2439 31.4998 37.2439H40.2498C40.7331 37.2439 41.1248 36.8522 41.1248 36.369V29.37C41.1248 28.8868 40.7331 28.4952 40.2498 28.4952H31.4998ZM39.3748 35.494H32.3748V30.2447H39.3748V35.494ZM20.9999 3.999H25.375V5.74901H20.9999V3.999ZM25.375 7.49906H20.9999V9.24907H25.375V7.49906ZM20.9999 10.9978H25.375V12.7478H20.9999V10.9978ZM34.9998 10.9978H30.6248V12.7478H34.9998V10.9978ZM36.7499 10.9978H41.1249V12.7478H36.7499V10.9978ZM47.25 10.9978H42.875V12.7478H47.25V10.9978ZM8.74994 14.4973H25.3749V16.2473H8.74994V14.4973ZM47.2497 14.4973H30.6248V16.2473H47.2497V14.4973ZM20.1249 17.9967H25.375V19.7467H20.1249V17.9967ZM25.3749 21.4962H19.2499V23.2462H25.3749V21.4962ZM15.7499 24.9956H25.375V26.7457H15.7499V24.9956ZM35.8748 17.9967H30.6248V19.7467H35.8748V17.9967ZM30.6248 21.4962H36.7498V23.2462H30.6248V21.4962ZM40.2498 24.9956H30.6248V26.7457H40.2498V24.9956ZM10.4999 28.4952H25.3748V30.2452H10.4999V28.4952ZM25.3749 31.9946H8.74994V33.7446H25.3749V31.9946ZM8.74994 35.494H25.3749V37.244H8.74994V35.494ZM46.375 28.4952H42.875V30.2452H46.375V28.4952ZM42.875 31.9946H47.25V33.7446H42.875V31.9946ZM47.25 35.494H42.875V37.244H47.25V35.494ZM30.6248 7.49906H38.4998V9.24907H30.6248V7.49906ZM47.2499 7.49906H40.2499V9.24907H47.2499V7.49906ZM30.6248 3.999H34.9998V5.74901H30.6248V3.999ZM47.2499 3.999H36.7499V5.74901H47.2499V3.999Z" fill="#182F44"/>
<defs>
<linearGradient id="paint0_linear" x1="7.62891" y1="39.1398" x2="27.594" y2="38.8833" gradientUnits="userSpaceOnUse">
<stop stop-color="#83C6CA"/>
<stop offset="1" stop-color="#89DCE1"/>
</linearGradient>
<linearGradient id="paint1_linear" x1="10.7188" y1="11.0195" x2="17.6575" y2="10.8025" gradientUnits="userSpaceOnUse">
<stop stop-color="#FF8225"/>
<stop offset="1" stop-color="#FF6B22"/>
</linearGradient>
<linearGradient id="paint2_linear" x1="8.3125" y1="42.5001" x2="39.9535" y2="24.6838" gradientUnits="userSpaceOnUse">
<stop stop-color="#FF8225"/>
<stop offset="1" stop-color="#FF6B22"/>
</linearGradient>
<linearGradient id="paint3_linear" x1="32.5938" y1="35.5156" x2="39.5325" y2="35.2986" gradientUnits="userSpaceOnUse">
<stop stop-color="#FF8225"/>
<stop offset="1" stop-color="#FF6B22"/>
</linearGradient>
<linearGradient id="paint4_linear" x1="29.5039" y1="39.1398" x2="49.469" y2="38.8833" gradientUnits="userSpaceOnUse">
<stop stop-color="#83C6CA"/>
<stop offset="1" stop-color="#89DCE1"/>
</linearGradient>
</defs>
</svg>
