<svg width="54" height="54" viewBox="0 0 54 54" fill="none" xmlns="http://www.w3.org/2000/svg">
<path d="M50.4001 43.2C49.6036 43.2 48.8953 43.551 48.4012 44.1H47.7001V38.7H40.5001V37.9989C41.0491 37.5048 41.4001 36.7965 41.4001 36C41.4001 34.5087 40.1914 33.3 38.7001 33.3C37.2088 33.3 36.0001 34.5087 36.0001 36C36.0001 36.7965 36.3511 37.5048 36.9001 37.9989V38.7H29.7001V44.1H28.999C28.5049 43.551 27.7965 43.2 27 43.2C25.5087 43.2 24.3 44.4087 24.3 45.9C24.3 47.3913 25.5087 48.6 27 48.6C27.7965 48.6 28.5049 48.249 28.999 47.7H29.7001V53.1H47.7001V47.7H48.4012C48.8953 48.249 49.6036 48.6 50.4001 48.6C51.8914 48.6 53.1001 47.3913 53.1001 45.9C53.1001 44.4087 51.8914 43.2 50.4001 43.2Z" fill="url(#paint0_linear)"/>
<path d="M17.9999 23.4H17.2988C16.8047 23.949 16.0964 24.3 15.2999 24.3C13.8086 24.3 12.5999 23.0913 12.5999 21.6C12.5999 20.1087 13.8086 18.9 15.2999 18.9C16.0964 18.9 16.8047 19.251 17.2988 19.8H17.9999V14.4H25.1999V13.6989C24.6509 13.2048 24.2999 12.4965 24.2999 11.7C24.2999 10.2087 25.5086 9.00002 26.9999 9.00002C28.4912 9.00002 29.6999 10.2087 29.6999 11.7C29.6999 12.4965 29.3489 13.2048 28.7999 13.6989V14.4H35.9999V19.8H36.701C37.1951 19.251 37.9034 18.9 38.6999 18.9C40.1912 18.9 41.3999 20.1087 41.3999 21.6C41.3999 23.0913 40.1912 24.3 38.6999 24.3C37.9034 24.3 37.1951 23.949 36.701 23.4H35.9999V28.8H53.0999V0.900024H0.899902V28.8H17.9999V23.4Z" fill="url(#paint1_linear)"/>
<path fill-rule="evenodd" clip-rule="evenodd" d="M0.9 29.7H18C18.4968 29.7 18.9 29.2977 18.9 28.8V23.4C18.9 22.9023 18.4968 22.5 18 22.5H17.2998C17.0451 22.5 16.8021 22.608 16.6311 22.797C16.281 23.1867 15.8076 23.4 15.3 23.4C14.3073 23.4 13.5 22.5927 13.5 21.6C13.5 20.6073 14.3073 19.8 15.3 19.8C15.8076 19.8 16.281 20.0133 16.6311 20.403C16.8012 20.592 17.0442 20.7 17.2998 20.7H18C18.4968 20.7 18.9 20.2977 18.9 19.8V15.3H25.2C25.6968 15.3 26.1 14.8977 26.1 14.4V13.6998C26.1 13.4451 25.992 13.2021 25.803 13.032C25.4142 12.681 25.2 12.2076 25.2 11.7C25.2 10.7073 26.0073 9.9 27 9.9C27.9927 9.9 28.8 10.7073 28.8 11.7C28.8 12.2076 28.5858 12.681 28.197 13.0311C28.008 13.2021 27.9 13.4442 27.9 13.6998V14.4C27.9 14.8977 28.3032 15.3 28.8 15.3H35.1V19.8C35.1 20.2977 35.5032 20.7 36 20.7H36.7002C36.9549 20.7 37.1979 20.592 37.3689 20.403C37.719 20.0133 38.1924 19.8 38.7 19.8C39.6927 19.8 40.5 20.6073 40.5 21.6C40.5 22.5927 39.6927 23.4 38.7 23.4C38.1924 23.4 37.719 23.1867 37.3689 22.797C37.1988 22.608 36.9558 22.5 36.7002 22.5H36C35.5032 22.5 35.1 22.9023 35.1 23.4V28.8C35.1 29.2977 35.5032 29.7 36 29.7H53.1C53.5968 29.7 54 29.2977 54 28.8V0.9C54 0.4023 53.5968 0 53.1 0H0.9C0.4032 0 0 0.4023 0 0.9V28.8C0 29.2977 0.4032 29.7 0.9 29.7ZM1.8 1.8H52.2V27.9H36.9V24.7095C37.4436 25.0272 38.0646 25.2 38.7 25.2C40.6854 25.2 42.3 23.5854 42.3 21.6C42.3 19.6146 40.6854 18 38.7 18C38.0646 18 37.4436 18.1728 36.9 18.4905V14.4C36.9 13.9023 36.4968 13.5 36 13.5H30.1095C30.4272 12.9564 30.6 12.3354 30.6 11.7C30.6 9.7146 28.9854 8.1 27 8.1C25.0146 8.1 23.4 9.7146 23.4 11.7C23.4 12.3354 23.5728 12.9564 23.8905 13.5H18C17.5032 13.5 17.1 13.9023 17.1 14.4V18.4905C16.5564 18.1728 15.9354 18 15.3 18C13.3146 18 11.7 19.6146 11.7 21.6C11.7 23.5854 13.3146 25.2 15.3 25.2C15.9354 25.2 16.5564 25.0272 17.1 24.7095V27.9H1.8V1.8ZM50.4 42.3C49.7646 42.3 49.1436 42.4728 48.6 42.7905V38.7C48.6 38.2023 48.1968 37.8 47.7 37.8H41.8095C42.1272 37.2564 42.3 36.6354 42.3 36C42.3 34.0146 40.6854 32.4 38.7 32.4C36.7146 32.4 35.1 34.0146 35.1 36C35.1 36.6354 35.2728 37.2564 35.5905 37.8H29.7C29.2032 37.8 28.8 38.2023 28.8 38.7V42.7905C28.2564 42.4728 27.6354 42.3 27 42.3C25.0146 42.3 23.4 43.9146 23.4 45.9C23.4 47.8854 25.0146 49.5 27 49.5C27.6354 49.5 28.2564 49.3272 28.8 49.0095V53.1C28.8 53.5977 29.2032 54 29.7 54H47.7C48.1968 54 48.6 53.5977 48.6 53.1V49.0095C49.1436 49.3272 49.7646 49.5 50.4 49.5C52.3854 49.5 54 47.8854 54 45.9C54 43.9146 52.3854 42.3 50.4 42.3ZM50.4 47.7C49.8924 47.7 49.419 47.4867 49.0689 47.097C48.8988 46.908 48.6558 46.8 48.4002 46.8H47.7C47.2032 46.8 46.8 47.2023 46.8 47.7V52.2H30.6V47.7C30.6 47.2023 30.1968 46.8 29.7 46.8H28.9998C28.7451 46.8 28.5021 46.908 28.3311 47.097C27.981 47.4867 27.5076 47.7 27 47.7C26.0073 47.7 25.2 46.8927 25.2 45.9C25.2 44.9073 26.0073 44.1 27 44.1C27.5076 44.1 27.981 44.3133 28.3311 44.703C28.5012 44.892 28.7442 45 28.9998 45H29.7C30.1968 45 30.6 44.5977 30.6 44.1V39.6H36.9C37.3968 39.6 37.8 39.1977 37.8 38.7V37.9998C37.8 37.7451 37.692 37.5021 37.503 37.332C37.1142 36.981 36.9 36.5076 36.9 36C36.9 35.0073 37.7073 34.2 38.7 34.2C39.6927 34.2 40.5 35.0073 40.5 36C40.5 36.5076 40.2858 36.981 39.897 37.3311C39.708 37.5021 39.6 37.7442 39.6 37.9998V38.7C39.6 39.1977 40.0032 39.6 40.5 39.6H46.8V44.1C46.8 44.5977 47.2032 45 47.7 45H48.4002C48.6549 45 48.8979 44.892 49.0689 44.703C49.419 44.3133 49.8924 44.1 50.4 44.1C51.3927 44.1 52.2 44.9073 52.2 45.9C52.2 46.8927 51.3927 47.7 50.4 47.7ZM30.2 29.1635L28.1363 31.2272V22.5998H26.3363V31.2272L24.2726 29.1635L23 30.4361L26.6 34.0361C26.9519 34.388 27.5207 34.388 27.8726 34.0361L31.4726 30.4361L30.2 29.1635ZM28.1362 20.8H26.3362V19H28.1362V20.8ZM5.40002 31.5H7.20002V33.3H5.40002V31.5ZM7.20002 35.1H5.40002V36.9H7.20002V35.1ZM5.40002 38.7H7.20002V40.5H5.40002V38.7ZM7.20002 42.3H5.40002V44.1H7.20002V42.3ZM5.40002 45.9H7.20002V47.7H5.40002V45.9ZM10.8 45.9H9.00004V47.7H10.8V45.9ZM12.6001 45.9H14.4001V47.7H12.6001V45.9ZM18.0001 45.9H16.2001V47.7H18.0001V45.9ZM19.8 45.9H21.6V47.7H19.8V45.9Z" fill="#182F44"/>
<defs>
<linearGradient id="paint0_linear" x1="25.2" y1="53.1784" x2="53.7425" y2="52.2044" gradientUnits="userSpaceOnUse">
<stop stop-color="#FF8225"/>
<stop offset="1" stop-color="#FF6B22"/>
</linearGradient>
<linearGradient id="paint1_linear" x1="2.53115" y1="28.9105" x2="54.225" y2="26.6414" gradientUnits="userSpaceOnUse">
<stop stop-color="#83C6CA"/>
<stop offset="1" stop-color="#89DCE1"/>
</linearGradient>
</defs>
</svg>
