<svg width="39" height="39" viewBox="0 0 39 39" fill="none" xmlns="http://www.w3.org/2000/svg">
<g filter="url(#filter0_d)">
<path d="M26.9998 17L27.7069 16.2929C27.8944 16.4804 27.9998 16.7348 27.9998 17C27.9998 17.2652 27.8944 17.5196 27.7069 17.7071L26.9998 17ZM11.9998 18C11.4475 18 10.9998 17.5523 10.9998 17C10.9998 16.4477 11.4475 16 11.9998 16L11.9998 18ZM21.2926 12.7071C20.9021 12.3166 20.9021 11.6834 21.2926 11.2929C21.6832 10.9024 22.3163 10.9024 22.7068 11.2929L21.2926 12.7071ZM22.7068 22.7071C22.3163 23.0976 21.6832 23.0976 21.2926 22.7071C20.9021 22.3166 20.9021 21.6834 21.2926 21.2929L22.7068 22.7071ZM26.9998 18L11.9998 18L11.9998 16L26.9998 16L26.9998 18ZM26.2927 17.7071L21.2926 12.7071L22.7068 11.2929L27.7069 16.2929L26.2927 17.7071ZM27.7069 17.7071L22.7068 22.7071L21.2926 21.2929L26.2927 16.2929L27.7069 17.7071Z" fill="white" fill-opacity="0.5"/>
</g>
<defs>
<filter id="filter0_d" x="0.594727" y="0.66246" width="38.306" height="38.0532" filterUnits="userSpaceOnUse" color-interpolation-filters="sRGB">
<feFlood flood-opacity="0" result="BackgroundImageFix"/>
<feColorMatrix in="SourceAlpha" type="matrix" values="0 0 0 0 0 0 0 0 0 0 0 0 0 0 0 0 0 0 127 0"/>
<feOffset dy="3"/>
<feGaussianBlur stdDeviation="5"/>
<feColorMatrix type="matrix" values="0 0 0 0 0.0933333 0 0 0 0 0.183467 0 0 0 0 0.266667 0 0 0 0.3 0"/>
<feBlend mode="multiply" in2="BackgroundImageFix" result="effect1_dropShadow"/>
<feBlend mode="normal" in="SourceGraphic" in2="effect1_dropShadow" result="shape"/>
</filter>
</defs>
</svg>
