<svg style="opacity:.1;fill:blue;" width="1920" height="826" viewBox="0 0 1920 826" fill="none" xmlns="http://www.w3.org/2000/svg">
<mask id="mask0" mask-type="alpha" maskUnits="userSpaceOnUse" x="0" y="-1" width="1920" height="825">
<rect y="-0.158417" width="1920" height="824.158" fill="#003157"/>
</mask>
<g mask="url(#mask0)">
<g opacity="0.3">
<path d="M1779.29 -303.797C1780.07 -304.578 1781.33 -304.578 1782.12 -303.797L1811.82 -274.083L713.403 824.549L651.158 824.549L1779.29 -303.797Z" fill="url(#paint0_linear)" style="mix-blend-mode:soft-light"/>
</g>
<g opacity="0.3">
<path d="M2054.29 -303.797C2055.07 -304.578 2056.33 -304.578 2057.12 -303.797L2086.82 -274.083L926.158 886.806L895.035 855.678L2054.29 -303.797Z" fill="url(#paint1_linear)" style="mix-blend-mode:soft-light"/>
</g>
<path d="M1690.91 -155.524C1691.7 -156.305 1692.96 -156.305 1693.74 -155.524L1816.78 -32.4639L960.437 824.043L711.535 824.043L1690.91 -155.524Z" fill="url(#paint2_linear)" style="mix-blend-mode:soft-light"/>
<g opacity="0.5">
<path d="M1851.4 -69.2705C1852.18 -70.0516 1853.44 -70.0516 1854.22 -69.2705L1977.26 53.7899L1205.94 825.263L957.035 825.263L1851.4 -69.2705Z" fill="url(#paint3_linear)" style="mix-blend-mode:soft-light"/>
</g>
<g opacity="0.5">
<path d="M1906.23 124.779C1907.49 123.519 1909.64 124.412 1909.64 126.194L1909.64 698.14L1783.3 824.5L1206.64 824.5L1906.23 124.779Z" fill="url(#paint4_linear)" fill-opacity="0.4" style="mix-blend-mode:multiply"/>
</g>
<g opacity="0.5">
<path d="M837.914 -0.572792C838.289 -0.947896 838.798 -1.1586 839.328 -1.15859L1476.18 -1.15871L651.683 823.5L14 823.5L837.914 -0.572792Z" fill="url(#paint5_linear)" fill-opacity="0.2" style="mix-blend-mode:multiply"/>
</g>
<path d="M1918 568L1662 824.049H1918V568Z" fill="url(#paint6_linear)" fill-opacity="0.5" style="mix-blend-mode:soft-light"/>
</g>
<line x1="8.74228e-08" y1="825" x2="1920" y2="825" stroke="white" stroke-opacity="0.7" stroke-width="2"/>
<defs>
<linearGradient id="paint0_linear" x1="1796.26" y1="-289.647" x2="666.502" y2="839.896" gradientUnits="userSpaceOnUse">
<stop stop-color="white" stop-opacity="0"/>
<stop offset="0.65625" stop-color="white"/>
<stop offset="1" stop-color="white" stop-opacity="0"/>
</linearGradient>
<linearGradient id="paint1_linear" x1="2071.26" y1="-289.647" x2="910.373" y2="871.019" gradientUnits="userSpaceOnUse">
<stop stop-color="white" stop-opacity="0"/>
<stop offset="0.65625" stop-color="white"/>
<stop offset="1" stop-color="white" stop-opacity="0"/>
</linearGradient>
<linearGradient id="paint2_linear" x1="1754.55" y1="-94.7013" x2="773.572" y2="886.092" gradientUnits="userSpaceOnUse">
<stop stop-color="white" stop-opacity="0"/>
<stop offset="0.65625" stop-color="white"/>
<stop offset="1" stop-color="white" stop-opacity="0"/>
</linearGradient>
<linearGradient id="paint3_linear" x1="1915.04" y1="-8.44753" x2="1019.09" y2="887.328" gradientUnits="userSpaceOnUse">
<stop stop-color="white" stop-opacity="0"/>
<stop offset="0.65625" stop-color="white"/>
<stop offset="1" stop-color="white" stop-opacity="0"/>
</linearGradient>
<linearGradient id="paint4_linear" x1="1805.23" y1="883.71" x2="1486.21" y2="537.75" gradientUnits="userSpaceOnUse">
<stop stop-color="#003157" stop-opacity="0"/>
<stop offset="1" stop-color="#003157"/>
</linearGradient>
<linearGradient id="paint5_linear" x1="796.743" y1="768.141" x2="437.684" y2="391.086" gradientUnits="userSpaceOnUse">
<stop stop-color="#003157"/>
<stop offset="1" stop-color="#003157" stop-opacity="0"/>
</linearGradient>
<linearGradient id="paint6_linear" x1="1790" y1="696.183" x2="1888.02" y2="799.684" gradientUnits="userSpaceOnUse">
<stop stop-color="white"/>
<stop offset="1" stop-color="white" stop-opacity="0"/>
</linearGradient>
</defs>
</svg>
