<svg width="58" height="56" viewBox="0 0 58 56" fill="none" xmlns="http://www.w3.org/2000/svg">
<path d="M38.2668 18.8561V7.65606V0.189392H19.6001V7.65606V18.8561H28.9334H38.2668Z" fill="url(#paint0_linear)"/>
<path d="M28.9334 32.856H35.4667L39.2001 25.3893H28.9334H22.4001L18.6667 32.856H28.9334Z" fill="url(#paint1_linear)"/>
<path d="M6.53335 54.3226C9.62614 54.3226 12.1333 51.8154 12.1333 48.7226C12.1333 45.6298 9.62614 43.1226 6.53335 43.1226C3.44055 43.1226 0.93335 45.6298 0.93335 48.7226C0.93335 51.8154 3.44055 54.3226 6.53335 54.3226Z" fill="url(#paint2_linear)"/>
<path d="M21.4667 54.3226C24.5595 54.3226 27.0667 51.8154 27.0667 48.7226C27.0667 45.6298 24.5595 43.1226 21.4667 43.1226C18.3739 43.1226 15.8667 45.6298 15.8667 48.7226C15.8667 51.8154 18.3739 54.3226 21.4667 54.3226Z" fill="#66CEDB"/>
<path d="M36.4 54.3226C39.4928 54.3226 42 51.8154 42 48.7226C42 45.6298 39.4928 43.1226 36.4 43.1226C33.3073 43.1226 30.8 45.6298 30.8 48.7226C30.8 51.8154 33.3073 54.3226 36.4 54.3226Z" fill="#66CEDB"/>
<path d="M51.3334 54.3226C54.4262 54.3226 56.9334 51.8154 56.9334 48.7226C56.9334 45.6298 54.4262 43.1226 51.3334 43.1226C48.2406 43.1226 45.7334 45.6298 45.7334 48.7226C45.7334 51.8154 48.2406 54.3226 51.3334 54.3226Z" fill="url(#paint3_linear)"/>
<path d="M54.1333 3.92273H42.9333V7.65606V11.3894H54.1333V3.92273Z" fill="url(#paint4_linear)"/>
<path d="M35.4668 3.73334H22.4001V5.6H35.4668V3.73334Z" fill="#182F44"/>
<path d="M35.4668 7.46667H22.4001V9.33334H35.4668V7.46667Z" fill="#182F44"/>
<path d="M35.4668 11.2H22.4001V13.0667H35.4668V11.2Z" fill="#182F44"/>
<path d="M35.4668 14.9333H22.4001V16.8H35.4668V14.9333Z" fill="#182F44"/>
<path d="M52.2667 43.008V39.2C52.2667 38.6839 51.8495 38.2667 51.3333 38.2667H29.8667V34.5333H35.4667C35.8204 34.5333 36.1433 34.3336 36.302 34.0172L40.0353 26.5505C40.18 26.2612 40.1651 25.9177 39.9943 25.6424C39.8235 25.3671 39.5239 25.2 39.2 25.2H29.8667V20.5333H38.2667C38.7828 20.5333 39.2 20.1161 39.2 19.6V9.33333H42V12.1333C42 12.6495 42.4172 13.0667 42.9333 13.0667H54.1333C54.6495 13.0667 55.0667 12.6495 55.0667 12.1333V4.66667C55.0667 4.15053 54.6495 3.73333 54.1333 3.73333H42.9333C42.4172 3.73333 42 4.15053 42 4.66667V7.46667H39.2V0.933333C39.2 0.4172 38.7828 0 38.2667 0H19.6C19.0839 0 18.6667 0.4172 18.6667 0.933333V6.14693L16.5265 4.0068L15.2068 5.32653L17.3469 7.46667H8.4V9.33333H17.3469L15.2068 11.4735L16.5265 12.7932L18.6667 10.6531V19.6C18.6667 20.1161 19.0839 20.5333 19.6 20.5333H28V25.2H22.4C22.0463 25.2 21.7233 25.3997 21.5647 25.7161L17.8313 33.1828C17.6867 33.4721 17.7016 33.8156 17.8724 34.0909C18.0432 34.3663 18.3428 34.5333 18.6667 34.5333H28V38.2667H6.53333C6.0172 38.2667 5.6 38.6839 5.6 39.2V43.008C2.43973 43.4635 0 46.1823 0 49.4667C0 53.0684 2.9316 56 6.53333 56C10.1351 56 13.0667 53.0684 13.0667 49.4667C13.0667 46.1823 10.6269 43.4635 7.46667 43.008V40.1333H20.5333V43.008C17.3731 43.4635 14.9333 46.1823 14.9333 49.4667C14.9333 53.0684 17.8649 56 21.4667 56C25.0684 56 28 53.0684 28 49.4667C28 46.1823 25.5603 43.4635 22.4 43.008V40.1333H35.4667V43.008C32.3064 43.4635 29.8667 46.1823 29.8667 49.4667C29.8667 53.0684 32.7983 56 36.4 56C40.0017 56 42.9333 53.0684 42.9333 49.4667C42.9333 46.1823 40.4936 43.4635 37.3333 43.008V40.1333H50.4V43.008C47.2397 43.4635 44.8 46.1823 44.8 49.4667C44.8 53.0684 47.7316 56 51.3333 56C54.9351 56 57.8667 53.0684 57.8667 49.4667C57.8667 46.1823 55.4269 43.4635 52.2667 43.008ZM43.8667 5.6H53.2V11.2H43.8667V5.6ZM20.5333 1.86667H37.3333V18.6667H20.5333V1.86667ZM22.9768 27.0667H37.6899L34.8899 32.6667H20.1768L22.9768 27.0667ZM11.2 49.4667C11.2 52.0399 9.10653 54.1333 6.53333 54.1333C3.96013 54.1333 1.86667 52.0399 1.86667 49.4667C1.86667 46.8935 3.96013 44.8 6.53333 44.8C9.10653 44.8 11.2 46.8935 11.2 49.4667ZM26.1333 49.4667C26.1333 52.0399 24.0399 54.1333 21.4667 54.1333C18.8935 54.1333 16.8 52.0399 16.8 49.4667C16.8 46.8935 18.8935 44.8 21.4667 44.8C24.0399 44.8 26.1333 46.8935 26.1333 49.4667ZM41.0667 49.4667C41.0667 52.0399 38.9732 54.1333 36.4 54.1333C33.8268 54.1333 31.7333 52.0399 31.7333 49.4667C31.7333 46.8935 33.8268 44.8 36.4 44.8C38.9732 44.8 41.0667 46.8935 41.0667 49.4667ZM51.3333 54.1333C48.7601 54.1333 46.6667 52.0399 46.6667 49.4667C46.6667 46.8935 48.7601 44.8 51.3333 44.8C53.9065 44.8 56 46.8935 56 49.4667C56 52.0399 53.9065 54.1333 51.3333 54.1333Z" fill="#182F44"/>
<path d="M49.4668 14.9333H47.6001V16.8H49.4668V14.9333Z" fill="#182F44"/>
<path d="M49.4668 18.6667H47.6001V20.5334H49.4668V18.6667Z" fill="#182F44"/>
<path d="M49.4668 22.4H47.6001V24.2667H49.4668V22.4Z" fill="#182F44"/>
<path d="M49.4668 26.1333H47.6001V28H49.4668V26.1333Z" fill="#182F44"/>
<path d="M49.4668 29.8667H47.6001V31.7334H49.4668V29.8667Z" fill="#182F44"/>
<path d="M45.7334 29.8667H43.8667V31.7334H45.7334V29.8667Z" fill="#182F44"/>
<path d="M42 29.8667H40.1333V31.7334H42V29.8667Z" fill="#182F44"/>
<path d="M6.53341 7.46667H4.66675V9.33334H6.53341V7.46667Z" fill="#182F44"/>
<path d="M2.80002 7.46667H0.93335V9.33334H2.80002V7.46667Z" fill="#182F44"/>
<path d="M33.5999 28.9333H24.2666V30.8H33.5999V28.9333Z" fill="#182F44"/>
<defs>
<linearGradient id="paint0_linear" x1="20.1834" y1="18.93" x2="38.6945" y2="18.4957" gradientUnits="userSpaceOnUse">
<stop stop-color="#FF8225"/>
<stop offset="1" stop-color="#FF6B22"/>
</linearGradient>
<linearGradient id="paint1_linear" x1="19.3084" y1="32.8856" x2="39.5974" y2="31.5766" gradientUnits="userSpaceOnUse">
<stop stop-color="#FF8225"/>
<stop offset="1" stop-color="#FF6B22"/>
</linearGradient>
<linearGradient id="paint2_linear" x1="1.28335" y1="54.367" x2="12.39" y2="54.1064" gradientUnits="userSpaceOnUse">
<stop stop-color="#83C6CA"/>
<stop offset="1" stop-color="#89DCE1"/>
</linearGradient>
<linearGradient id="paint3_linear" x1="46.0834" y1="54.367" x2="57.1901" y2="54.1064" gradientUnits="userSpaceOnUse">
<stop stop-color="#83C6CA"/>
<stop offset="1" stop-color="#89DCE1"/>
</linearGradient>
<linearGradient id="paint4_linear" x1="43.2833" y1="11.419" x2="54.3824" y2="11.0284" gradientUnits="userSpaceOnUse">
<stop stop-color="#83C6CA"/>
<stop offset="1" stop-color="#89DCE1"/>
</linearGradient>
</defs>
</svg>
